# Blender 4.0.2
# www.blender.org
o Cube
v 0.500000 0.500000 -0.500000
v 0.500000 -0.500000 -0.500000
v 0.500000 0.500000 0.500000
v 0.500000 -0.500000 0.500000
v -0.500000 0.500000 -0.500000
v -0.500000 -0.500000 -0.500000
v -0.500000 0.500000 0.500000
v -0.500000 -0.500000 0.500000
vn -0.0000 1.0000 -0.0000
vn -0.0000 -0.0000 1.0000
vn -1.0000 -0.0000 -0.0000
vn -0.0000 -1.0000 -0.0000
vn 1.0000 -0.0000 -0.0000
vn -0.0000 -0.0000 -1.0000
vt 0.960931 0.039069
vt 0.960931 0.101556
vt 0.898444 0.101556
vt 0.898444 0.039069
vt 1.000000 0.000000
vt 1.000000 1.000000
vt 0.000000 1.000000
vt 0.000000 0.000000
vt 1.000000 0.000000
vt 1.000000 1.000000
vt 0.906256 0.097650
vt 0.906256 0.035163
vt 0.968744 0.035163
vt 0.968744 0.097650
vt 1.000000 0.000000
vt 0.000000 0.000000
s 0
f 1/1/1 5/2/1 7/3/1 3/4/1
f 4/5/2 3/6/2 7/7/2 8/8/2
f 8/9/3 7/10/3 5/7/3 6/8/3
f 6/11/4 2/12/4 4/13/4 8/14/4
f 2/15/5 1/10/5 3/7/5 4/16/5
f 6/15/6 5/10/6 1/7/6 2/8/6
