# Blender v3.0.1 OBJ File: ''
# www.blender.org
mtllib arm0_base.mtl
o arm0_base
v -0.049000 0.003768 0.000000
v -0.049000 0.040088 0.000000
v -0.048058 0.040088 -0.009559
v -0.048058 0.003768 -0.009559
v -0.045270 0.040088 -0.018751
v -0.045270 0.003768 -0.018751
v -0.040742 0.040088 -0.027223
v -0.040742 0.003768 -0.027223
v -0.034648 0.040088 -0.034648
v -0.034648 0.003768 -0.034648
v -0.027223 0.040088 -0.040742
v -0.027223 0.003768 -0.040742
v -0.018751 0.040088 -0.045270
v -0.018751 0.003768 -0.045270
v -0.009559 0.040088 -0.048058
v -0.009559 0.003768 -0.048058
v -0.000000 0.040088 -0.049000
v -0.000000 0.003768 -0.049000
v 0.009559 0.040088 -0.048058
v 0.009559 0.003768 -0.048058
v 0.018751 0.040088 -0.045270
v 0.018751 0.003768 -0.045270
v 0.027223 0.040088 -0.040742
v 0.027223 0.003768 -0.040742
v 0.034648 0.040088 -0.034648
v 0.034648 0.003768 -0.034648
v 0.040742 0.040088 -0.027223
v 0.040742 0.003768 -0.027223
v 0.045270 0.040088 -0.018751
v 0.045270 0.003768 -0.018751
v 0.048058 0.040088 -0.009559
v 0.048058 0.003768 -0.009559
v 0.049000 0.040088 -0.000000
v 0.049000 0.003768 -0.000000
v 0.048058 0.040088 0.009559
v 0.048058 0.003768 0.009559
v 0.045270 0.040088 0.018751
v 0.045270 0.003768 0.018751
v 0.040742 0.040088 0.027223
v 0.040742 0.003768 0.027223
v 0.034648 0.040088 0.034648
v 0.034648 0.003768 0.034648
v 0.027223 0.040088 0.040742
v 0.027223 0.003768 0.040742
v 0.018751 0.040088 0.045270
v 0.018751 0.003768 0.045270
v 0.009559 0.040088 0.048058
v 0.009559 0.003768 0.048058
v 0.000000 0.040088 0.049000
v 0.000000 0.003768 0.049000
v -0.009559 0.040088 0.048058
v -0.009559 0.003768 0.048058
v -0.018751 0.040088 0.045270
v -0.018751 0.003768 0.045270
v -0.027223 0.040088 0.040742
v -0.027223 0.003768 0.040742
v -0.034648 0.040088 0.034648
v -0.034648 0.003768 0.034648
v -0.040742 0.040088 0.027223
v -0.040742 0.003768 0.027223
v -0.045270 0.040088 0.018751
v -0.045270 0.003768 0.018751
v -0.048058 0.040088 0.009559
v -0.048058 0.003768 0.009559
v 0.059894 -0.000001 0.060000
v 0.059894 0.004986 0.060000
v -0.080106 0.004986 0.060000
v -0.080106 -0.000001 0.060000
v -0.080106 0.004986 -0.060000
v -0.080106 -0.000001 -0.060000
v 0.059894 0.004986 -0.060000
v 0.059894 -0.000001 -0.060000
v -0.053960 0.033291 -0.000000
v -0.053960 0.044145 -0.000000
v -0.052923 0.044145 -0.010527
v -0.052923 0.033291 -0.010527
v -0.049853 0.044145 -0.020650
v -0.049853 0.033291 -0.020650
v -0.044866 0.044145 -0.029979
v -0.044866 0.033291 -0.029979
v -0.038156 0.044145 -0.038156
v -0.038156 0.033291 -0.038156
v -0.029979 0.044145 -0.044866
v -0.029979 0.033291 -0.044866
v -0.020650 0.044145 -0.049853
v -0.020650 0.033291 -0.049853
v -0.010527 0.044145 -0.052923
v -0.010527 0.033291 -0.052923
v -0.000000 0.044145 -0.053960
v -0.000000 0.033291 -0.053960
v 0.010527 0.044145 -0.052923
v 0.010527 0.033291 -0.052923
v 0.020650 0.044145 -0.049853
v 0.020650 0.033291 -0.049853
v 0.029979 0.044145 -0.044866
v 0.029979 0.033291 -0.044866
v 0.038156 0.044145 -0.038156
v 0.038156 0.033291 -0.038156
v 0.044866 0.044145 -0.029979
v 0.044866 0.033291 -0.029979
v 0.049853 0.044145 -0.020650
v 0.049853 0.033291 -0.020650
v 0.052923 0.044145 -0.010527
v 0.052923 0.033291 -0.010527
v 0.053960 0.044145 -0.000000
v 0.053960 0.033291 -0.000000
v 0.052923 0.044145 0.010527
v 0.052923 0.033291 0.010527
v 0.049853 0.044145 0.020650
v 0.049853 0.033291 0.020650
v 0.044866 0.044145 0.029979
v 0.044866 0.033291 0.029979
v 0.038156 0.044145 0.038156
v 0.038156 0.033291 0.038156
v 0.029979 0.044145 0.044866
v 0.029979 0.033291 0.044866
v 0.020650 0.044145 0.049853
v 0.020650 0.033291 0.049853
v 0.010527 0.044145 0.052923
v 0.010527 0.033291 0.052923
v 0.000000 0.044145 0.053960
v 0.000000 0.033291 0.053960
v -0.010527 0.044145 0.052923
v -0.010527 0.033291 0.052923
v -0.020650 0.044145 0.049853
v -0.020650 0.033291 0.049853
v -0.029979 0.044145 0.044866
v -0.029979 0.033291 0.044866
v -0.038156 0.044145 0.038156
v -0.038156 0.033291 0.038156
v -0.044866 0.044145 0.029979
v -0.044866 0.033291 0.029979
v -0.049853 0.044145 0.020650
v -0.049853 0.033291 0.020650
v -0.052923 0.044145 0.010527
v -0.052923 0.033291 0.010527
vn -0.9952 0.0000 -0.0980
vn -0.9569 0.0000 -0.2903
vn -0.8819 0.0000 -0.4714
vn -0.7730 0.0000 -0.6344
vn -0.6344 0.0000 -0.7730
vn -0.4714 0.0000 -0.8819
vn -0.2903 0.0000 -0.9569
vn -0.0980 0.0000 -0.9952
vn 0.0980 0.0000 -0.9952
vn 0.2903 0.0000 -0.9569
vn 0.4714 0.0000 -0.8819
vn 0.6344 0.0000 -0.7730
vn 0.7730 0.0000 -0.6344
vn 0.8819 0.0000 -0.4714
vn 0.9569 0.0000 -0.2903
vn 0.9952 0.0000 -0.0980
vn 0.9952 0.0000 0.0980
vn 0.9569 0.0000 0.2903
vn 0.8819 0.0000 0.4714
vn 0.7730 0.0000 0.6344
vn 0.6344 0.0000 0.7730
vn 0.4714 0.0000 0.8819
vn 0.2903 0.0000 0.9569
vn 0.0980 0.0000 0.9952
vn -0.0980 0.0000 0.9952
vn -0.2903 0.0000 0.9569
vn -0.4714 0.0000 0.8819
vn -0.6344 0.0000 0.7730
vn -0.7730 0.0000 0.6344
vn -0.8819 0.0000 0.4714
vn 0.0000 1.0000 0.0000
vn -0.9569 0.0000 0.2903
vn -0.9952 0.0000 0.0980
vn 0.0000 -1.0000 0.0000
vn 0.0000 0.0000 1.0000
vn -1.0000 0.0000 0.0000
vn 0.0000 0.0000 -1.0000
vn 1.0000 0.0000 -0.0000
usemtl None
s off
f 1//1 2//1 3//1
f 1//1 3//1 4//1
f 4//2 3//2 5//2
f 4//2 5//2 6//2
f 6//3 5//3 7//3
f 6//3 7//3 8//3
f 8//4 7//4 9//4
f 8//4 9//4 10//4
f 10//5 9//5 11//5
f 10//5 11//5 12//5
f 12//6 11//6 13//6
f 12//6 13//6 14//6
f 14//7 13//7 15//7
f 14//7 15//7 16//7
f 16//8 15//8 17//8
f 16//8 17//8 18//8
f 18//9 17//9 19//9
f 18//9 19//9 20//9
f 20//10 19//10 21//10
f 20//10 21//10 22//10
f 22//11 21//11 23//11
f 22//11 23//11 24//11
f 24//12 23//12 25//12
f 24//12 25//12 26//12
f 26//13 25//13 27//13
f 26//13 27//13 28//13
f 28//14 27//14 29//14
f 28//14 29//14 30//14
f 30//15 29//15 31//15
f 30//15 31//15 32//15
f 32//16 31//16 33//16
f 32//16 33//16 34//16
f 34//17 33//17 35//17
f 34//17 35//17 36//17
f 36//18 35//18 37//18
f 36//18 37//18 38//18
f 38//19 37//19 39//19
f 38//19 39//19 40//19
f 40//20 39//20 41//20
f 40//20 41//20 42//20
f 42//21 41//21 43//21
f 42//21 43//21 44//21
f 44//22 43//22 45//22
f 44//22 45//22 46//22
f 46//23 45//23 47//23
f 46//23 47//23 48//23
f 48//24 47//24 49//24
f 48//24 49//24 50//24
f 50//25 49//25 51//25
f 50//25 51//25 52//25
f 52//26 51//26 53//26
f 52//26 53//26 54//26
f 54//27 53//27 55//27
f 54//27 55//27 56//27
f 56//28 55//28 57//28
f 56//28 57//28 58//28
f 58//29 57//29 59//29
f 58//29 59//29 60//29
f 60//30 59//30 61//30
f 60//30 61//30 62//30
f 5//31 3//31 2//31
f 2//31 63//31 61//31
f 61//31 59//31 57//31
f 57//31 55//31 53//31
f 53//31 51//31 49//31
f 49//31 47//31 45//31
f 45//31 43//31 41//31
f 41//31 39//31 37//31
f 37//31 35//31 33//31
f 33//31 31//31 29//31
f 29//31 27//31 25//31
f 25//31 23//31 21//31
f 21//31 19//31 17//31
f 17//31 15//31 13//31
f 13//31 11//31 9//31
f 9//31 7//31 5//31
f 5//31 2//31 61//31
f 61//31 57//31 53//31
f 53//31 49//31 45//31
f 45//31 41//31 37//31
f 37//31 33//31 29//31
f 29//31 25//31 21//31
f 21//31 17//31 13//31
f 13//31 9//31 5//31
f 5//31 61//31 53//31
f 53//31 45//31 37//31
f 37//31 29//31 21//31
f 21//31 13//31 5//31
f 5//31 53//31 37//31
f 37//31 21//31 5//31
f 62//32 61//32 63//32
f 62//32 63//32 64//32
f 64//33 63//33 2//33
f 64//33 2//33 1//33
f 64//34 1//34 4//34
f 4//34 6//34 8//34
f 8//34 10//34 12//34
f 12//34 14//34 16//34
f 16//34 18//34 20//34
f 20//34 22//34 24//34
f 24//34 26//34 28//34
f 28//34 30//34 32//34
f 32//34 34//34 36//34
f 36//34 38//34 40//34
f 40//34 42//34 44//34
f 44//34 46//34 48//34
f 48//34 50//34 52//34
f 52//34 54//34 56//34
f 56//34 58//34 60//34
f 60//34 62//34 64//34
f 64//34 4//34 8//34
f 8//34 12//34 16//34
f 16//34 20//34 24//34
f 24//34 28//34 32//34
f 32//34 36//34 40//34
f 40//34 44//34 48//34
f 48//34 52//34 56//34
f 56//34 60//34 64//34
f 64//34 8//34 16//34
f 16//34 24//34 32//34
f 32//34 40//34 48//34
f 48//34 56//34 64//34
f 64//34 16//34 32//34
f 32//34 48//34 64//34
f 65//35 66//35 67//35
f 65//35 67//35 68//35
f 68//36 67//36 69//36
f 68//36 69//36 70//36
f 70//37 69//37 71//37
f 70//37 71//37 72//37
f 72//38 71//38 66//38
f 72//38 66//38 65//38
f 68//34 70//34 72//34
f 68//34 72//34 65//34
f 69//31 67//31 66//31
f 69//31 66//31 71//31
f 73//1 74//1 75//1
f 73//1 75//1 76//1
f 76//2 75//2 77//2
f 76//2 77//2 78//2
f 78//3 77//3 79//3
f 78//3 79//3 80//3
f 80//4 79//4 81//4
f 80//4 81//4 82//4
f 82//5 81//5 83//5
f 82//5 83//5 84//5
f 84//6 83//6 85//6
f 84//6 85//6 86//6
f 86//7 85//7 87//7
f 86//7 87//7 88//7
f 88//8 87//8 89//8
f 88//8 89//8 90//8
f 90//9 89//9 91//9
f 90//9 91//9 92//9
f 92//10 91//10 93//10
f 92//10 93//10 94//10
f 94//11 93//11 95//11
f 94//11 95//11 96//11
f 96//12 95//12 97//12
f 96//12 97//12 98//12
f 98//13 97//13 99//13
f 98//13 99//13 100//13
f 100//14 99//14 101//14
f 100//14 101//14 102//14
f 102//15 101//15 103//15
f 102//15 103//15 104//15
f 104//16 103//16 105//16
f 104//16 105//16 106//16
f 106//17 105//17 107//17
f 106//17 107//17 108//17
f 108//18 107//18 109//18
f 108//18 109//18 110//18
f 110//19 109//19 111//19
f 110//19 111//19 112//19
f 112//20 111//20 113//20
f 112//20 113//20 114//20
f 114//21 113//21 115//21
f 114//21 115//21 116//21
f 116//22 115//22 117//22
f 116//22 117//22 118//22
f 118//23 117//23 119//23
f 118//23 119//23 120//23
f 120//24 119//24 121//24
f 120//24 121//24 122//24
f 122//25 121//25 123//25
f 122//25 123//25 124//25
f 124//26 123//26 125//26
f 124//26 125//26 126//26
f 126//27 125//27 127//27
f 126//27 127//27 128//27
f 128//28 127//28 129//28
f 128//28 129//28 130//28
f 130//29 129//29 131//29
f 130//29 131//29 132//29
f 132//30 131//30 133//30
f 132//30 133//30 134//30
f 77//31 75//31 74//31
f 74//31 135//31 133//31
f 133//31 131//31 129//31
f 129//31 127//31 125//31
f 125//31 123//31 121//31
f 121//31 119//31 117//31
f 117//31 115//31 113//31
f 113//31 111//31 109//31
f 109//31 107//31 105//31
f 105//31 103//31 101//31
f 101//31 99//31 97//31
f 97//31 95//31 93//31
f 93//31 91//31 89//31
f 89//31 87//31 85//31
f 85//31 83//31 81//31
f 81//31 79//31 77//31
f 77//31 74//31 133//31
f 133//31 129//31 125//31
f 125//31 121//31 117//31
f 117//31 113//31 109//31
f 109//31 105//31 101//31
f 101//31 97//31 93//31
f 93//31 89//31 85//31
f 85//31 81//31 77//31
f 77//31 133//31 125//31
f 125//31 117//31 109//31
f 109//31 101//31 93//31
f 93//31 85//31 77//31
f 77//31 125//31 109//31
f 109//31 93//31 77//31
f 134//32 133//32 135//32
f 134//32 135//32 136//32
f 136//33 135//33 74//33
f 136//33 74//33 73//33
f 136//34 73//34 76//34
f 76//34 78//34 80//34
f 80//34 82//34 84//34
f 84//34 86//34 88//34
f 88//34 90//34 92//34
f 92//34 94//34 96//34
f 96//34 98//34 100//34
f 100//34 102//34 104//34
f 104//34 106//34 108//34
f 108//34 110//34 112//34
f 112//34 114//34 116//34
f 116//34 118//34 120//34
f 120//34 122//34 124//34
f 124//34 126//34 128//34
f 128//34 130//34 132//34
f 132//34 134//34 136//34
f 136//34 76//34 80//34
f 80//34 84//34 88//34
f 88//34 92//34 96//34
f 96//34 100//34 104//34
f 104//34 108//34 112//34
f 112//34 116//34 120//34
f 120//34 124//34 128//34
f 128//34 132//34 136//34
f 136//34 80//34 88//34
f 88//34 96//34 104//34
f 104//34 112//34 120//34
f 120//34 128//34 136//34
f 136//34 88//34 104//34
f 104//34 120//34 136//34
