# Blender v3.0.1 OBJ File: ''
# www.blender.org
mtllib arm7_jaw.mtl
o arm7_jaw
v -0.002231 0.024535 -0.025992
v -0.007865 0.020677 -0.025992
v -0.009099 0.029009 -0.025992
v -0.004697 0.030142 -0.025992
v -0.013500 0.016820 -0.025992
v -0.005500 0.014168 -0.025992
v -0.013500 0.011292 -0.025992
v -0.005000 0.000000 -0.025992
v -0.013026 -0.003544 -0.025992
v -0.004045 0.002939 -0.025992
v 0.012894 0.003998 -0.025992
v 0.013177 -0.002935 -0.025992
v 0.005000 0.000000 -0.025992
v 0.004045 0.002939 -0.025992
v -0.013500 0.038659 -0.025992
v -0.010168 0.038659 -0.025992
v -0.013500 0.027875 -0.025992
v -0.004045 -0.002939 -0.025992
v -0.009511 -0.009581 -0.025992
v -0.001545 0.004755 -0.025992
v -0.001545 -0.004755 -0.025992
v -0.003241 -0.013105 -0.025992
v 0.001545 -0.004755 -0.025992
v 0.003846 -0.012940 -0.025992
v 0.002500 0.017044 -0.025992
v 0.008975 0.010084 -0.025992
v 0.001545 0.004755 -0.025992
v 0.004045 -0.002939 -0.025992
v 0.009873 -0.009207 -0.025992
v -0.006836 0.038659 -0.025992
v -0.002231 0.024535 -0.021992
v -0.004697 0.030142 -0.021992
v -0.009099 0.029009 -0.021992
v -0.007865 0.020677 -0.021992
v -0.013500 0.016820 -0.021992
v -0.013500 0.011292 -0.021992
v -0.005500 0.014168 -0.021992
v -0.005000 0.000000 -0.021992
v -0.004045 0.002939 -0.021992
v -0.013026 -0.003544 -0.021992
v 0.012894 0.003998 -0.021992
v 0.004045 0.002939 -0.021992
v 0.005000 0.000000 -0.021992
v 0.013177 -0.002935 -0.021992
v -0.013500 0.038659 -0.021992
v -0.013500 0.027875 -0.021992
v -0.010168 0.038659 -0.021992
v -0.004045 -0.002939 -0.021992
v -0.009511 -0.009581 -0.021992
v -0.001545 0.004755 -0.021992
v -0.001545 -0.004755 -0.021992
v -0.003241 -0.013105 -0.021992
v 0.003846 -0.012940 -0.021992
v 0.001545 -0.004755 -0.021992
v 0.002500 0.017044 -0.021992
v 0.001545 0.004755 -0.021992
v 0.008975 0.010084 -0.021992
v 0.004045 -0.002939 -0.021992
v 0.009873 -0.009207 -0.021992
v -0.006836 0.038659 -0.021992
v -0.002231 0.024535 0.025992
v -0.004697 0.030142 0.025992
v -0.009099 0.029009 0.025992
v -0.007865 0.020677 0.025992
v -0.013500 0.016820 0.025992
v -0.013500 0.011292 0.025992
v -0.005500 0.014168 0.025992
v -0.005000 0.000000 0.025992
v -0.004045 0.002939 0.025992
v -0.013026 -0.003544 0.025992
v 0.012894 0.003998 0.025992
v 0.004045 0.002939 0.025992
v 0.005000 0.000000 0.025992
v 0.013177 -0.002935 0.025992
v -0.013500 0.038659 0.025992
v -0.013500 0.027875 0.025992
v -0.010168 0.038659 0.025992
v -0.004045 -0.002939 0.025992
v -0.009511 -0.009581 0.025992
v -0.001545 0.004755 0.025992
v -0.001545 -0.004755 0.025992
v -0.003241 -0.013105 0.025992
v 0.003846 -0.012940 0.025992
v 0.001545 -0.004755 0.025992
v 0.002500 0.017044 0.025992
v 0.001545 0.004755 0.025992
v 0.008975 0.010084 0.025992
v 0.004045 -0.002939 0.025992
v 0.009873 -0.009207 0.025992
v -0.006836 0.038659 0.025992
v -0.002231 0.024535 0.021992
v -0.007865 0.020677 0.021992
v -0.009099 0.029009 0.021992
v -0.004697 0.030142 0.021992
v -0.013500 0.016820 0.021992
v -0.005500 0.014168 0.021992
v -0.013500 0.011292 0.021992
v -0.005000 0.000000 0.021992
v -0.013026 -0.003544 0.021992
v -0.004045 0.002939 0.021992
v 0.012894 0.003998 0.021992
v 0.013177 -0.002935 0.021992
v 0.005000 0.000000 0.021992
v 0.004045 0.002939 0.021992
v -0.013500 0.038659 0.021992
v -0.010168 0.038659 0.021992
v -0.013500 0.027875 0.021992
v -0.004045 -0.002939 0.021992
v -0.009511 -0.009581 0.021992
v -0.001545 0.004755 0.021992
v -0.001545 -0.004755 0.021992
v -0.003241 -0.013105 0.021992
v 0.001545 -0.004755 0.021992
v 0.003846 -0.012940 0.021992
v 0.002500 0.017044 0.021992
v 0.008975 0.010084 0.021992
v 0.001545 0.004755 0.021992
v 0.004045 -0.002939 0.021992
v 0.009873 -0.009207 0.021992
v -0.006836 0.038659 0.021992
v -0.008965 0.097680 -0.023220
v -0.011802 0.097680 -0.023192
v -0.011802 0.100803 -0.012053
v -0.008965 0.100803 -0.012053
v -0.011802 0.032903 -0.036360
v -0.019765 0.032903 -0.036360
v -0.019765 0.055281 -0.035289
v -0.011802 0.055281 -0.035289
v -0.008965 0.032903 -0.000000
v -0.011802 0.032903 -0.000000
v -0.008965 0.032903 -0.036360
v -0.008965 0.055281 -0.035289
v -0.011802 0.061683 -0.034787
v -0.008965 0.061683 -0.034787
v -0.001760 0.045936 -0.035782
v 0.001791 0.040065 -0.035369
v 0.001791 0.032903 -0.036360
v -0.001760 0.032903 -0.036360
v -0.004807 0.055281 -0.000000
v -0.004807 0.055281 -0.035289
v -0.004807 0.061683 -0.034851
v -0.004807 0.061683 -0.000000
v 0.002556 0.097680 -0.022444
v 0.002556 0.100803 -0.012093
v 0.007229 0.100803 -0.012093
v 0.007229 0.097680 -0.022444
v -0.004807 0.097680 -0.022809
v -0.001798 0.097680 -0.022809
v -0.001798 0.089975 -0.030454
v -0.004807 0.089975 -0.030384
v -0.019765 0.061683 -0.034787
v -0.019765 0.089975 -0.030008
v -0.011802 0.089975 -0.030008
v 0.002556 0.089975 -0.030542
v -0.008965 0.089975 -0.030223
v -0.001798 0.075134 -0.033147
v -0.004807 0.100803 -0.000000
v -0.001798 0.100803 -0.000000
v -0.001798 0.100803 -0.012093
v -0.004807 0.100803 -0.012093
v 0.002556 0.100803 -0.000000
v -0.019765 0.097680 -0.023531
v 0.009063 0.098927 -0.000000
v 0.009063 0.089975 -0.000000
v 0.009063 0.089975 -0.030084
v 0.009063 0.097680 -0.022444
v 0.009063 0.098927 -0.012093
v 0.007229 0.089975 -0.030308
v 0.009063 0.088815 -0.000000
v 0.009063 0.088815 -0.030598
v 0.002556 0.081654 -0.032468
v 0.007229 0.085887 -0.031782
v 0.007229 0.100803 -0.000000
v -0.001760 0.032903 -0.000000
v -0.004807 0.032903 -0.000000
v -0.004807 0.032903 -0.036360
v 0.001791 0.032903 -0.000000
v 0.001791 0.040065 -0.000000
v 0.007229 0.085887 -0.000000
v 0.007229 0.089975 -0.000000
v 0.002556 0.089975 -0.000000
v -0.019765 0.032903 -0.000000
v 0.002556 0.081654 -0.000000
v -0.019765 0.100803 -0.012053
v -0.019765 0.100803 -0.000000
v -0.011802 0.100803 -0.000000
v -0.001760 0.045936 -0.000000
v -0.001798 0.075134 -0.000000
v -0.008965 0.100803 -0.000000
v -0.008965 0.097680 0.023220
v -0.008965 0.100803 0.012053
v -0.011802 0.100803 0.012053
v -0.011802 0.097680 0.023192
v -0.011802 0.032903 0.036360
v -0.011802 0.055281 0.035289
v -0.019765 0.055281 0.035289
v -0.019765 0.032903 0.036360
v -0.008965 0.032903 0.036360
v -0.008965 0.055281 0.035289
v -0.008965 0.061683 0.034787
v -0.011802 0.061683 0.034787
v -0.001760 0.045936 0.035782
v -0.001760 0.032903 0.036360
v 0.001791 0.032903 0.036360
v 0.001791 0.040065 0.035369
v -0.004807 0.061683 0.034851
v -0.004807 0.055281 0.035289
v 0.002556 0.097680 0.022444
v 0.007229 0.097680 0.022444
v 0.007229 0.100803 0.012093
v 0.002556 0.100803 0.012093
v -0.004807 0.097680 0.022809
v -0.004807 0.089975 0.030384
v -0.001798 0.089975 0.030454
v -0.001798 0.097680 0.022809
v -0.019765 0.061683 0.034787
v -0.011802 0.089975 0.030008
v -0.019765 0.089975 0.030008
v 0.002556 0.089975 0.030542
v -0.008965 0.089975 0.030223
v -0.001798 0.075134 0.033147
v -0.004807 0.100803 0.012093
v -0.001798 0.100803 0.012093
v -0.019765 0.097680 0.023531
v 0.009063 0.089975 0.030083
v 0.009063 0.098927 0.012093
v 0.009063 0.097680 0.022444
v 0.007229 0.089975 0.030308
v 0.009063 0.088815 0.030598
v 0.002556 0.081654 0.032468
v 0.007229 0.085887 0.031782
v -0.004807 0.032903 0.036360
v -0.019765 0.100803 0.012053
vn 0.0000 0.0000 -1.0000
vn 0.0000 0.0000 1.0000
vn -1.0000 0.0000 0.0000
vn 0.9154 0.4027 -0.0000
vn -0.5878 -0.8090 0.0000
vn 0.9511 0.3090 0.0000
vn 0.9992 0.0407 0.0000
vn 0.7321 0.6812 0.0000
vn 0.0000 1.0000 0.0000
vn 0.9699 0.2436 0.0000
vn 0.9511 -0.3090 0.0000
vn -0.8641 -0.5033 0.0000
vn -0.9511 -0.3090 0.0000
vn 0.5878 -0.8090 -0.0000
vn 0.0232 -0.9997 0.0000
vn 0.8847 -0.4661 0.0000
vn 0.8455 0.5340 0.0000
vn 0.5266 -0.8501 0.0000
vn 0.0000 -1.0000 0.0000
vn -0.5878 0.8090 -0.0000
vn 0.5878 0.8090 0.0000
vn -0.9511 0.3090 0.0000
vn -0.4900 -0.8717 -0.0000
vn 0.8408 0.5414 0.0000
vn -0.9995 -0.0319 0.0000
vn -0.0027 0.9629 -0.2700
vn 0.0000 0.9630 -0.2694
vn 0.0000 0.0478 -0.9989
vn 0.0000 0.0782 -0.9969
vn 0.3237 0.1297 -0.9372
vn 0.0000 0.0443 -0.9990
vn 1.0000 -0.0000 -0.0000
vn 0.0000 0.9574 -0.2889
vn 0.0000 0.7043 -0.7099
vn -0.0165 0.7010 -0.7130
vn 0.0000 0.1666 -0.9860
vn 0.0577 0.7233 -0.6882
vn -0.0144 0.7042 -0.7098
vn -0.0747 0.1588 -0.9845
vn -0.0228 0.1785 -0.9837
vn -0.1367 0.1545 -0.9785
vn 0.0000 0.6435 -0.7655
vn 0.0319 0.6622 -0.7486
vn 0.0000 0.7245 -0.6893
vn 0.0351 0.7138 -0.6994
vn 0.0488 0.2252 -0.9731
vn -0.1666 0.3344 -0.9276
vn 0.8474 -0.5309 -0.0000
vn 0.0234 0.9598 -0.2797
vn 0.0000 0.9601 -0.2798
vn -0.0567 0.6615 -0.7478
vn -0.0074 0.6726 -0.7400
vn 0.6714 -0.7411 0.0000
vn 0.0112 0.9648 -0.2626
vn 0.0000 0.9629 -0.2700
vn 0.9507 0.3100 0.0000
vn 0.8557 0.5175 -0.0000
vn 0.7150 0.6992 0.0000
vn 0.7150 0.6991 -0.0000
vn -0.0383 0.1592 -0.9865
vn -0.0151 0.1559 -0.9877
vn 0.0000 0.7143 -0.6999
vn 0.0866 0.7014 -0.7075
vn 0.6996 0.6841 -0.2064
vn 0.0000 0.9928 -0.1197
vn 0.1144 0.3369 -0.9346
vn -0.0582 0.4052 -0.9124
vn 0.8316 -0.5553 0.0000
vn 0.9759 -0.2183 -0.0000
vn -0.0287 0.6723 -0.7397
vn 0.0703 0.6993 -0.7113
vn -0.0258 0.0443 -0.9987
vn -0.0152 0.0683 -0.9975
vn 0.0266 0.9627 -0.2693
vn -0.0027 0.9600 -0.2798
vn -0.0198 0.2255 -0.9741
vn -0.1132 0.1774 -0.9776
vn 0.0000 0.9630 0.2694
vn -0.0027 0.9629 0.2700
vn 0.0000 0.0478 0.9989
vn 0.0000 0.0782 0.9969
vn 0.0000 0.0443 0.9990
vn 0.3237 0.1297 0.9372
vn 0.0000 0.9574 0.2889
vn -0.0165 0.7010 0.7130
vn 0.0000 0.7043 0.7099
vn 0.0000 0.1666 0.9860
vn -0.0144 0.7042 0.7098
vn 0.0577 0.7233 0.6882
vn -0.0747 0.1588 0.9845
vn -0.1367 0.1545 0.9785
vn -0.0228 0.1785 0.9837
vn 0.0319 0.6622 0.7486
vn 0.0000 0.6435 0.7655
vn 0.0351 0.7138 0.6994
vn 0.0000 0.7245 0.6893
vn -0.1666 0.3344 0.9276
vn 0.0488 0.2252 0.9731
vn 0.0234 0.9598 0.2797
vn 0.0000 0.9601 0.2798
vn -0.0074 0.6726 0.7400
vn -0.0567 0.6615 0.7478
vn 0.0000 0.9629 0.2700
vn 0.0112 0.9648 0.2626
vn -0.0151 0.1559 0.9877
vn -0.0383 0.1592 0.9865
vn 0.0866 0.7014 0.7075
vn 0.0000 0.7143 0.6999
vn 0.0000 0.9928 0.1197
vn 0.6996 0.6841 0.2064
vn -0.0582 0.4051 0.9124
vn 0.1144 0.3369 0.9346
vn 0.0703 0.6993 0.7113
vn -0.0287 0.6723 0.7397
vn -0.0258 0.0443 0.9987
vn -0.0152 0.0683 0.9975
vn -0.0027 0.9600 0.2798
vn 0.0266 0.9627 0.2693
vn -0.1132 0.1774 0.9776
vn -0.0198 0.2255 0.9741
usemtl None
s off
f 1//1 2//1 3//1
f 1//1 3//1 4//1
f 5//1 2//1 6//1
f 5//1 6//1 7//1
f 8//1 9//1 7//1
f 8//1 7//1 10//1
f 11//1 12//1 13//1
f 11//1 13//1 14//1
f 15//1 16//1 3//1
f 15//1 3//1 17//1
f 18//1 19//1 9//1
f 18//1 9//1 8//1
f 10//1 7//1 6//1
f 10//1 6//1 20//1
f 21//1 22//1 19//1
f 21//1 19//1 18//1
f 21//1 23//1 24//1
f 21//1 24//1 22//1
f 1//1 25//1 6//1
f 1//1 6//1 2//1
f 25//1 26//1 27//1
f 14//1 27//1 26//1
f 14//1 26//1 11//1
f 28//1 29//1 24//1
f 28//1 24//1 23//1
f 27//1 20//1 6//1
f 27//1 6//1 25//1
f 17//1 3//1 2//1
f 17//1 2//1 5//1
f 13//1 12//1 29//1
f 13//1 29//1 28//1
f 4//1 3//1 16//1
f 4//1 16//1 30//1
f 31//2 32//2 33//2
f 31//2 33//2 34//2
f 35//2 36//2 37//2
f 35//2 37//2 34//2
f 38//2 39//2 36//2
f 38//2 36//2 40//2
f 41//2 42//2 43//2
f 41//2 43//2 44//2
f 45//2 46//2 33//2
f 45//2 33//2 47//2
f 48//2 38//2 40//2
f 48//2 40//2 49//2
f 39//2 50//2 37//2
f 39//2 37//2 36//2
f 51//2 48//2 49//2
f 51//2 49//2 52//2
f 51//2 52//2 53//2
f 51//2 53//2 54//2
f 31//2 34//2 37//2
f 31//2 37//2 55//2
f 55//2 56//2 57//2
f 42//2 41//2 57//2
f 42//2 57//2 56//2
f 58//2 54//2 53//2
f 58//2 53//2 59//2
f 56//2 55//2 37//2
f 56//2 37//2 50//2
f 46//2 35//2 34//2
f 46//2 34//2 33//2
f 43//2 58//2 59//2
f 43//2 59//2 44//2
f 32//2 60//2 47//2
f 32//2 47//2 33//2
f 15//3 17//3 46//3
f 15//3 46//3 45//3
f 1//4 4//4 32//4
f 1//4 32//4 31//4
f 27//5 14//5 42//5
f 27//5 42//5 56//5
f 18//6 8//6 38//6
f 18//6 38//6 48//6
f 12//7 11//7 41//7
f 12//7 41//7 44//7
f 26//8 25//8 55//8
f 26//8 55//8 57//8
f 23//9 21//9 51//9
f 23//9 51//9 54//9
f 4//10 30//10 60//10
f 4//10 60//10 32//10
f 8//11 10//11 39//11
f 8//11 39//11 38//11
f 9//12 19//12 49//12
f 9//12 49//12 40//12
f 14//13 13//13 43//13
f 14//13 43//13 42//13
f 10//14 20//14 50//14
f 10//14 50//14 39//14
f 22//15 24//15 53//15
f 22//15 53//15 52//15
f 29//16 12//16 44//16
f 29//16 44//16 59//16
f 17//3 5//3 35//3
f 17//3 35//3 46//3
f 25//17 1//17 31//17
f 25//17 31//17 55//17
f 24//18 29//18 59//18
f 24//18 59//18 53//18
f 20//19 27//19 56//19
f 20//19 56//19 50//19
f 28//20 23//20 54//20
f 28//20 54//20 58//20
f 21//21 18//21 48//21
f 21//21 48//21 51//21
f 13//22 28//22 58//22
f 13//22 58//22 43//22
f 19//23 22//23 52//23
f 19//23 52//23 49//23
f 16//9 15//9 45//9
f 16//9 45//9 47//9
f 5//3 7//3 36//3
f 5//3 36//3 35//3
f 30//9 16//9 47//9
f 30//9 47//9 60//9
f 11//24 26//24 57//24
f 11//24 57//24 41//24
f 7//25 9//25 40//25
f 7//25 40//25 36//25
f 61//2 62//2 63//2
f 61//2 63//2 64//2
f 65//2 66//2 67//2
f 65//2 67//2 64//2
f 68//2 69//2 66//2
f 68//2 66//2 70//2
f 71//2 72//2 73//2
f 71//2 73//2 74//2
f 75//2 76//2 63//2
f 75//2 63//2 77//2
f 78//2 68//2 70//2
f 78//2 70//2 79//2
f 69//2 80//2 67//2
f 69//2 67//2 66//2
f 81//2 78//2 79//2
f 81//2 79//2 82//2
f 81//2 82//2 83//2
f 81//2 83//2 84//2
f 61//2 64//2 67//2
f 61//2 67//2 85//2
f 85//2 86//2 87//2
f 72//2 71//2 87//2
f 72//2 87//2 86//2
f 88//2 84//2 83//2
f 88//2 83//2 89//2
f 86//2 85//2 67//2
f 86//2 67//2 80//2
f 76//2 65//2 64//2
f 76//2 64//2 63//2
f 73//2 88//2 89//2
f 73//2 89//2 74//2
f 62//2 90//2 77//2
f 62//2 77//2 63//2
f 91//1 92//1 93//1
f 91//1 93//1 94//1
f 95//1 92//1 96//1
f 95//1 96//1 97//1
f 98//1 99//1 97//1
f 98//1 97//1 100//1
f 101//1 102//1 103//1
f 101//1 103//1 104//1
f 105//1 106//1 93//1
f 105//1 93//1 107//1
f 108//1 109//1 99//1
f 108//1 99//1 98//1
f 100//1 97//1 96//1
f 100//1 96//1 110//1
f 111//1 112//1 109//1
f 111//1 109//1 108//1
f 111//1 113//1 114//1
f 111//1 114//1 112//1
f 91//1 115//1 96//1
f 91//1 96//1 92//1
f 115//1 116//1 117//1
f 104//1 117//1 116//1
f 104//1 116//1 101//1
f 118//1 119//1 114//1
f 118//1 114//1 113//1
f 117//1 110//1 96//1
f 117//1 96//1 115//1
f 107//1 93//1 92//1
f 107//1 92//1 95//1
f 103//1 102//1 119//1
f 103//1 119//1 118//1
f 94//1 93//1 106//1
f 94//1 106//1 120//1
f 75//3 105//3 107//3
f 75//3 107//3 76//3
f 61//4 91//4 94//4
f 61//4 94//4 62//4
f 86//5 117//5 104//5
f 86//5 104//5 72//5
f 78//6 108//6 98//6
f 78//6 98//6 68//6
f 74//7 102//7 101//7
f 74//7 101//7 71//7
f 87//8 116//8 115//8
f 87//8 115//8 85//8
f 84//9 113//9 111//9
f 84//9 111//9 81//9
f 62//10 94//10 120//10
f 62//10 120//10 90//10
f 68//11 98//11 100//11
f 68//11 100//11 69//11
f 70//12 99//12 109//12
f 70//12 109//12 79//12
f 72//13 104//13 103//13
f 72//13 103//13 73//13
f 69//14 100//14 110//14
f 69//14 110//14 80//14
f 82//15 112//15 114//15
f 82//15 114//15 83//15
f 89//16 119//16 102//16
f 89//16 102//16 74//16
f 76//3 107//3 95//3
f 76//3 95//3 65//3
f 85//17 115//17 91//17
f 85//17 91//17 61//17
f 83//18 114//18 119//18
f 83//18 119//18 89//18
f 80//19 110//19 117//19
f 80//19 117//19 86//19
f 88//20 118//20 113//20
f 88//20 113//20 84//20
f 81//21 111//21 108//21
f 81//21 108//21 78//21
f 73//22 103//22 118//22
f 73//22 118//22 88//22
f 79//23 109//23 112//23
f 79//23 112//23 82//23
f 77//9 106//9 105//9
f 77//9 105//9 75//9
f 65//3 95//3 97//3
f 65//3 97//3 66//3
f 90//9 120//9 106//9
f 90//9 106//9 77//9
f 71//24 101//24 116//24
f 71//24 116//24 87//24
f 66//25 97//25 99//25
f 66//25 99//25 70//25
f 121//26 122//26 123//26
f 121//27 123//27 124//27
f 125//28 126//28 127//28
f 125//28 127//28 128//28
f 129//19 130//19 125//19
f 129//19 125//19 131//19
f 131//28 125//28 128//28
f 131//28 128//28 132//28
f 132//29 128//29 133//29
f 132//29 133//29 134//29
f 135//30 136//30 137//30
f 135//31 137//31 138//31
f 139//32 140//32 141//32
f 139//32 141//32 142//32
f 143//33 144//33 145//33
f 143//33 145//33 146//33
f 147//34 148//34 149//34
f 147//35 149//35 150//35
f 151//36 152//36 153//36
f 151//36 153//36 133//36
f 148//37 143//37 154//37
f 148//38 154//38 149//38
f 134//36 133//36 153//36
f 134//39 153//39 155//39
f 150//40 149//40 156//40
f 150//41 156//41 141//41
f 157//9 158//9 159//9
f 157//9 159//9 160//9
f 158//9 161//9 144//9
f 158//9 144//9 159//9
f 153//42 152//42 162//42
f 153//43 162//43 122//43
f 163//32 164//32 165//32
f 165//32 166//32 167//32
f 165//32 167//32 163//32
f 154//44 143//44 146//44
f 154//45 146//45 168//45
f 169//32 170//32 165//32
f 169//32 165//32 164//32
f 171//46 154//46 168//46
f 171//47 168//47 172//47
f 144//9 161//9 173//9
f 144//9 173//9 145//9
f 138//19 174//19 175//19
f 138//19 175//19 176//19
f 177//32 137//32 136//32
f 177//32 136//32 178//32
f 179//48 172//48 170//48
f 179//48 170//48 169//48
f 173//2 180//2 164//2
f 173//2 164//2 163//2
f 161//2 181//2 180//2
f 161//2 180//2 173//2
f 159//33 144//33 143//33
f 159//49 143//49 148//49
f 160//50 159//50 148//50
f 160//50 148//50 147//50
f 155//51 153//51 122//51
f 155//52 122//52 121//52
f 130//19 182//19 126//19
f 130//19 126//19 125//19
f 183//53 171//53 172//53
f 183//53 172//53 179//53
f 128//29 127//29 151//29
f 128//29 151//29 133//29
f 122//54 162//54 184//54
f 122//55 184//55 123//55
f 123//9 184//9 185//9
f 123//9 185//9 186//9
f 180//2 179//2 169//2
f 180//2 169//2 164//2
f 140//56 139//56 187//56
f 140//56 187//56 135//56
f 137//19 177//19 174//19
f 137//19 174//19 138//19
f 135//57 187//57 178//57
f 135//57 178//57 136//57
f 145//58 173//58 163//58
f 145//59 163//59 167//59
f 134//60 155//60 150//60
f 134//61 150//61 141//61
f 168//62 146//62 166//62
f 168//63 166//63 165//63
f 146//64 145//64 167//64
f 146//65 167//65 166//65
f 172//66 168//66 165//66
f 172//67 165//67 170//67
f 181//2 183//2 179//2
f 181//2 179//2 180//2
f 156//68 171//68 183//68
f 156//68 183//68 188//68
f 141//69 156//69 188//69
f 141//69 188//69 142//69
f 162//3 152//3 151//3
f 151//3 127//3 126//3
f 126//3 182//3 185//3
f 185//3 184//3 162//3
f 162//3 151//3 126//3
f 126//3 185//3 162//3
f 124//9 123//9 186//9
f 124//9 186//9 189//9
f 160//9 124//9 189//9
f 160//9 189//9 157//9
f 150//70 155//70 121//70
f 150//71 121//71 147//71
f 140//72 135//72 138//72
f 140//28 138//28 176//28
f 140//29 132//29 134//29
f 140//73 134//73 141//73
f 176//28 131//28 132//28
f 176//28 132//28 140//28
f 175//19 129//19 131//19
f 175//19 131//19 176//19
f 147//74 121//74 124//74
f 147//75 124//75 160//75
f 149//76 154//76 171//76
f 149//77 171//77 156//77
f 190//78 191//78 192//78
f 190//79 192//79 193//79
f 194//80 195//80 196//80
f 194//80 196//80 197//80
f 129//19 198//19 194//19
f 129//19 194//19 130//19
f 198//80 199//80 195//80
f 198//80 195//80 194//80
f 199//81 200//81 201//81
f 199//81 201//81 195//81
f 202//82 203//82 204//82
f 202//83 204//83 205//83
f 139//32 142//32 206//32
f 139//32 206//32 207//32
f 208//84 209//84 210//84
f 208//84 210//84 211//84
f 212//85 213//85 214//85
f 212//86 214//86 215//86
f 216//87 201//87 217//87
f 216//87 217//87 218//87
f 215//88 214//88 219//88
f 215//89 219//89 208//89
f 200//90 220//90 217//90
f 200//87 217//87 201//87
f 213//91 206//91 221//91
f 213//92 221//92 214//92
f 157//9 222//9 223//9
f 157//9 223//9 158//9
f 158//9 223//9 211//9
f 158//9 211//9 161//9
f 217//93 193//93 224//93
f 217//94 224//94 218//94
f 225//32 164//32 163//32
f 163//32 226//32 227//32
f 163//32 227//32 225//32
f 219//95 228//95 209//95
f 219//96 209//96 208//96
f 169//32 164//32 225//32
f 169//32 225//32 229//32
f 230//97 231//97 228//97
f 230//98 228//98 219//98
f 211//9 210//9 173//9
f 211//9 173//9 161//9
f 203//19 232//19 175//19
f 203//19 175//19 174//19
f 177//32 178//32 205//32
f 177//32 205//32 204//32
f 179//48 169//48 229//48
f 179//48 229//48 231//48
f 223//99 215//99 208//99
f 223//84 208//84 211//84
f 222//100 212//100 215//100
f 222//100 215//100 223//100
f 220//101 190//101 193//101
f 220//102 193//102 217//102
f 130//19 194//19 197//19
f 130//19 197//19 182//19
f 183//53 179//53 231//53
f 183//53 231//53 230//53
f 195//81 201//81 216//81
f 195//81 216//81 196//81
f 193//103 192//103 233//103
f 193//104 233//104 224//104
f 192//9 186//9 185//9
f 192//9 185//9 233//9
f 207//56 202//56 187//56
f 207//56 187//56 139//56
f 204//19 203//19 174//19
f 204//19 174//19 177//19
f 202//57 205//57 178//57
f 202//57 178//57 187//57
f 210//58 226//58 163//58
f 210//59 163//59 173//59
f 200//105 206//105 213//105
f 200//106 213//106 220//106
f 228//107 225//107 227//107
f 228//108 227//108 209//108
f 209//109 227//109 226//109
f 209//110 226//110 210//110
f 231//111 229//111 225//111
f 231//112 225//112 228//112
f 221//68 188//68 183//68
f 221//68 183//68 230//68
f 206//69 142//69 188//69
f 206//69 188//69 221//69
f 216//3 218//3 224//3
f 224//3 233//3 185//3
f 185//3 182//3 197//3
f 197//3 196//3 216//3
f 216//3 224//3 185//3
f 185//3 197//3 216//3
f 191//9 189//9 186//9
f 191//9 186//9 192//9
f 222//9 157//9 189//9
f 222//9 189//9 191//9
f 213//113 212//113 190//113
f 213//114 190//114 220//114
f 207//80 232//80 203//80
f 207//115 203//115 202//115
f 207//116 206//116 200//116
f 207//81 200//81 199//81
f 232//80 207//80 199//80
f 232//80 199//80 198//80
f 175//19 232//19 198//19
f 175//19 198//19 129//19
f 212//117 222//117 191//117
f 212//118 191//118 190//118
f 214//119 221//119 230//119
f 214//120 230//120 219//120
